<mxfile host="65bd71144e">
    <diagram id="KkLaFbu2Xf1jGMgU1E9N" name="PÃ¡gina-1">
        <mxGraphModel dx="697" dy="374" grid="1" gridSize="10" guides="1" tooltips="1" connect="1" arrows="1" fold="1" page="1" pageScale="1" pageWidth="827" pageHeight="1169" math="0" shadow="0">
            <root>
                <mxCell id="0"/>
                <mxCell id="1" parent="0"/>
                <mxCell id="3" value="Edificio" style="swimlane;startSize=60;" vertex="1" parent="1">
                    <mxGeometry x="80" y="90" width="160" height="90" as="geometry"/>
                </mxCell>
                <mxCell id="5" value="" style="rhombus;whiteSpace=wrap;html=1;" vertex="1" parent="1">
                    <mxGeometry x="240" y="124" width="40" height="30" as="geometry"/>
                </mxCell>
                <mxCell id="6" value="" style="endArrow=none;html=1;exitX=1;exitY=0.5;exitDx=0;exitDy=0;" edge="1" parent="1" source="5">
                    <mxGeometry width="50" height="50" relative="1" as="geometry">
                        <mxPoint x="320" y="230" as="sourcePoint"/>
                        <mxPoint x="400" y="139" as="targetPoint"/>
                    </mxGeometry>
                </mxCell>
                <mxCell id="7" value="0..*" style="text;html=1;strokeColor=none;fillColor=none;align=center;verticalAlign=middle;whiteSpace=wrap;rounded=0;" vertex="1" parent="1">
                    <mxGeometry x="350" y="94" width="60" height="30" as="geometry"/>
                </mxCell>
                <mxCell id="8" value="1" style="text;html=1;strokeColor=none;fillColor=none;align=center;verticalAlign=middle;whiteSpace=wrap;rounded=0;" vertex="1" parent="1">
                    <mxGeometry x="270" y="94" width="60" height="30" as="geometry"/>
                </mxCell>
                <mxCell id="9" value="Uso de edificio" style="swimlane;startSize=40;" vertex="1" parent="1">
                    <mxGeometry x="400" y="80" width="200" height="100" as="geometry"/>
                </mxCell>
                <mxCell id="10" value="Fecha de inicio: 1 Tiempo" style="text;html=1;strokeColor=none;fillColor=none;align=center;verticalAlign=middle;whiteSpace=wrap;rounded=0;" vertex="1" parent="9">
                    <mxGeometry x="25" y="59" width="150" as="geometry"/>
                </mxCell>
                <mxCell id="11" value="Fecha de fin: 0..1 Tiempo" style="text;html=1;strokeColor=none;fillColor=none;align=center;verticalAlign=middle;whiteSpace=wrap;rounded=0;" vertex="1" parent="9">
                    <mxGeometry x="25" y="80" width="150" as="geometry"/>
                </mxCell>
                <mxCell id="12" value="" style="triangle;whiteSpace=wrap;html=1;rotation=-90;" vertex="1" parent="1">
                    <mxGeometry x="490" y="180" width="20" height="20" as="geometry"/>
                </mxCell>
                <mxCell id="13" value="" style="endArrow=none;html=1;entryX=0;entryY=0.5;entryDx=0;entryDy=0;" edge="1" parent="1" target="12">
                    <mxGeometry width="50" height="50" relative="1" as="geometry">
                        <mxPoint x="500" y="230" as="sourcePoint"/>
                        <mxPoint x="530" y="180" as="targetPoint"/>
                        <Array as="points">
                            <mxPoint x="500" y="210"/>
                        </Array>
                    </mxGeometry>
                </mxCell>
                <mxCell id="14" value="" style="endArrow=none;html=1;" edge="1" parent="1">
                    <mxGeometry width="50" height="50" relative="1" as="geometry">
                        <mxPoint x="310" y="230" as="sourcePoint"/>
                        <mxPoint x="700" y="230" as="targetPoint"/>
                    </mxGeometry>
                </mxCell>
                <mxCell id="15" value="" style="endArrow=none;html=1;" edge="1" parent="1">
                    <mxGeometry width="50" height="50" relative="1" as="geometry">
                        <mxPoint x="700" y="230" as="sourcePoint"/>
                        <mxPoint x="700" y="280" as="targetPoint"/>
                    </mxGeometry>
                </mxCell>
                <mxCell id="16" value="Vivienda" style="swimlane;startSize=40;" vertex="1" parent="1">
                    <mxGeometry x="620" y="270" width="120" height="70" as="geometry"/>
                </mxCell>
                <mxCell id="17" value="" style="endArrow=none;html=1;" edge="1" parent="1">
                    <mxGeometry width="50" height="50" relative="1" as="geometry">
                        <mxPoint x="500" y="230" as="sourcePoint"/>
                        <mxPoint x="500" y="270" as="targetPoint"/>
                    </mxGeometry>
                </mxCell>
                <mxCell id="18" value="Escuela" style="swimlane;startSize=40;" vertex="1" parent="1">
                    <mxGeometry x="440" y="270" width="120" height="70" as="geometry"/>
                </mxCell>
                <mxCell id="19" value="" style="endArrow=none;html=1;" edge="1" parent="1">
                    <mxGeometry width="50" height="50" relative="1" as="geometry">
                        <mxPoint x="310" y="270" as="sourcePoint"/>
                        <mxPoint x="310" y="230" as="targetPoint"/>
                    </mxGeometry>
                </mxCell>
                <mxCell id="20" value="Hospital" style="swimlane;startSize=40;" vertex="1" parent="1">
                    <mxGeometry x="250" y="270" width="120" height="70" as="geometry"/>
                </mxCell>
            </root>
        </mxGraphModel>
    </diagram>
</mxfile>